<svg xmlns="http://www.w3.org/2000/svg" viewBox="0 0 24 24" fill="#FA243C">
  <path d="M23.994 6.124a9.23 9.23 0 00-.24-2.19c-.317-1.31-1.062-2.31-2.18-3.043a5.022 5.022 0 00-1.877-.726 10.496 10.496 0 00-1.564-.15c-.04-.003-.083-.01-.124-.013H5.986c-.152.01-.303.017-.455.026-.747.043-1.49.123-2.193.4-1.336.53-2.3 1.452-2.865 2.78-.192.448-.292.925-.363 1.408-.056.392-.088.785-.1 1.18 0 .032-.007.062-.01.093v12.223c.01.14.017.283.027.424.05.815.154 1.624.497 2.373.65 1.42 1.738 2.353 3.234 2.802.42.127.856.187 1.293.228.555.053 1.11.06 1.667.06h11.03c.525 0 1.048-.034 1.57-.1.823-.106 1.597-.35 2.296-.81.84-.553 1.472-1.287 1.88-2.208.186-.42.293-.87.37-1.324.113-.675.138-1.358.137-2.04-.002-3.8 0-7.595-.003-11.393zm-6.423 3.99v5.712c0 .417-.058.827-.244 1.206-.29.59-.76.962-1.388 1.14-.35.1-.706.157-1.07.173-.95.042-1.785-.384-2.105-1.332-.215-.638-.174-1.285.16-1.883.323-.576.825-.907 1.46-1.058.39-.092.784-.153 1.176-.232.274-.055.468-.18.525-.462.007-.04.012-.082.012-.123V8.666c0-.234-.064-.29-.293-.24l-5.28 1.058c-.02.004-.04.013-.06.02-.136.048-.18.104-.18.253v7.157c0 .429-.053.852-.252 1.24-.3.593-.77.963-1.404 1.138-.33.092-.665.14-1.006.16-.99.054-1.834-.36-2.16-1.347-.222-.67-.165-1.343.19-1.973.35-.612.884-.935 1.546-1.088.372-.086.748-.148 1.123-.22.308-.06.486-.216.525-.524.003-.025.007-.05.007-.076V7.32c0-.198.03-.387.118-.567.14-.285.385-.44.692-.498.22-.043.444-.074.667-.11l3.575-.61 2.302-.395 1.162-.2c.27-.047.538-.1.81-.137.155-.02.207.027.207.184 0 .376-.002.752-.002 1.128z"/>
</svg>
