<svg width="512" height="512" viewBox="0 0 512 512" fill="none" xmlns="http://www.w3.org/2000/svg">
  <defs>
    <linearGradient id="bg" x1="0%" y1="0%" x2="100%" y2="100%">
      <stop offset="0%" style="stop-color:#a855f7"/>
      <stop offset="100%" style="stop-color:#ec4899"/>
    </linearGradient>
  </defs>
  <rect width="512" height="512" rx="108" fill="url(#bg)"/>
  <g transform="translate(128, 128)" fill="white">
    <!-- Music note icon -->
    <path d="M96 32v176.4c-9.4-5.5-20.3-8.4-32-8.4-35.3 0-64 28.7-64 64s28.7 64 64 64 64-28.7 64-64V96h96v96.4c-9.4-5.5-20.3-8.4-32-8.4-35.3 0-64 28.7-64 64s28.7 64 64 64 64-28.7 64-64V0H96v32z" transform="scale(0.9) translate(14, 14)"/>
  </g>
</svg>
